# xmcd
#
# Track frame offsets: 
#        182
#        10397
#        23652
#        38615
#        55137
#        70750
#        85635
#        99457
#        111935
#        126040
#        141157
#        154892
#
# Disc length: 2304 seconds
#
# Revision: 1
# Processed by: cddbd v1.5.2PL0 Copyright (c) Steve Scherf et al.
# Submitted via: ExactAudioCopy v0.99pb3
#
DISCID=9208fe0c
DTITLE=Various Artist - Memorias Sertanejas Vol 15
DYEAR=1996
DGENRE=Sertanejo
TTITLE0=Milionario e Jose Rico - Doce Ilusao
TTITLE1=Tonico e Tinoco - Boiadeiro Apaixonado
TTITLE2=Tiao Carreiro e Pardinho - Felicidade
TTITLE3=Pedro Bento e Ze da Estrada - Cavalo Baio
TTITLE4=Rolando Boldrin - Piracicaba
TTITLE5=Jaco e Jacozinho - Filho Adotivo
TTITLE6=Duo Guaruja - Cabecinha no Ombro
TTITLE7=Milionario e Jose Rico - Coracao de Pedra
TTITLE8=Cacula e Marinheiro - Cantinho do Ceu
TTITLE9=Leoncio e Leonel - Bandeira Branca
TTITLE10=Zilo e Zalo - Alma do Ferreirinha
TTITLE11=Pardinho e Pardal - Amigo Fiel
EXTD=
EXTT0=
EXTT1=
EXTT2=
EXTT3=
EXTT4=
EXTT5=
EXTT6=
EXTT7=
EXTT8=
EXTT9=
EXTT10=
EXTT11=
PLAYORDER=
